<?xml version="1.0" encoding="UTF-8"?>
<svg id="e" xmlns="http://www.w3.org/2000/svg" width="1000" height="1000" xmlns:xlink="http://www.w3.org/1999/xlink" viewBox="0 0 1000 1000">
    <defs><style>.j{fill:#fff;}.j,.k{stroke-width:0px;}.k{fill:url(#f);}</style><radialGradient id="f" cx="970.38" cy="921.11" fx="970.38" fy="921.11" r="1225.76" gradientUnits="userSpaceOnUse"><stop offset=".03" stop-color="#bd9664"/><stop offset=".12" stop-color="#95836a"/><stop offset=".23" stop-color="#6c6f71"/><stop offset=".31" stop-color="#526375"/><stop offset=".36" stop-color="#495f77"/><stop offset=".42" stop-color="#3f5267"/><stop offset=".54" stop-color="#27323f"/><stop offset=".61" stop-color="#171d25"/></radialGradient></defs>
    <rect class="k" x="38.38" y="38.38" width="923.24" height="923.24" rx="255.52" ry="255.52"/>
    <path class="j" d="M357.8,586.51c-16.08-16.08-16.08-42.16,0-58.24l238.55-238.55c2.41-2.41,5.1-4.48,7.96-6.2l-40.07-5.48c-12.76-1.75-25.6,2.58-34.7,11.68l-238.55,238.55c-16.08,16.08-16.08,42.16,0,58.24l123.76,123.76c16.08,16.08,42.16,16.08,58.24,0l4.28-4.28-119.48-119.48Z"/>
    <path class="j" d="M249.1,586.51c-16.08-16.08-16.08-42.16,0-58.24l238.55-238.55c2.41-2.41,5.1-4.48,7.96-6.2l-40.07-5.48c-12.76-1.75-25.6,2.58-34.7,11.68l-238.55,238.55c-16.08,16.08-16.08,42.16,0,58.24l123.76,123.76c16.08,16.08,42.16,16.08,58.24,0l4.28-4.28-119.48-119.48Z"/>
    <path class="j" d="M779.29,292.99l-108.84-14.89c-12.75-1.75-25.59,2.58-34.69,11.68l-238.5,238.5c-16.08,16.08-16.08,42.15,0,58.23l123.73,123.73c16.08,16.08,42.15,16.08,58.23,0l238.5-238.5c9.1-9.1,13.42-21.94,11.68-34.69l-14.89-108.84c-2.51-18.31-16.9-32.7-35.21-35.21ZM573.76,638.96c1.93,1.93,1.93,5.06,0,6.99l-8.67,8.67c-1.93,1.93-5.06,1.93-6.99,0l-105.24-105.24c-1.93-1.93-1.93-5.06,0-6.99l8.67-8.67c1.93-1.93,5.06-1.93,6.99,0l105.24,105.24ZM580.39,609.21c1.22,1.22,1.22,3.2,0,4.42l-7.56,7.56c-1.22,1.22-3.2,1.22-4.42,0l-94.97-94.97c-1.22-1.22-1.22-3.2,0-4.42l7.56-7.56c1.22-1.22,3.2-1.22,4.42,0l94.97,94.97ZM593.41,595.12c1.52,1.52,1.52,3.98,0,5.49l-1.41,1.41c-1.52,1.52-3.98,1.52-5.49,0l-93.89-93.89c-1.52-1.52-1.52-3.98,0-5.49l1.41-1.41c1.52-1.52,3.98-1.52,5.49,0l93.89,93.89ZM606.94,581.59c1.52,1.52,1.52,3.98,0,5.49l-1.41,1.41c-1.52,1.52-3.98,1.52-5.49,0l-93.89-93.89c-1.52-1.52-1.52-3.98,0-5.49l1.41-1.41c1.52-1.52,3.98-1.52,5.49,0l93.89,93.89ZM620.72,567.81c1.52,1.52,1.52,3.98,0,5.49l-1.41,1.41c-1.52,1.52-3.98,1.52-5.49,0l-93.89-93.89c-1.52-1.52-1.52-3.98,0-5.49l1.41-1.41c1.52-1.52,3.98-1.52,5.49,0l93.89,93.89ZM653.26,559.46c1.93,1.93,1.93,5.06,0,6.99l-8.67,8.67c-1.93,1.93-5.06,1.93-6.99,0l-105.24-105.24c-1.93-1.93-1.93-5.06,0-6.99l8.67-8.67c1.93-1.93,5.06-1.93,6.99,0l105.24,105.24ZM653.15,534.87c1.65,1.65,1.65,4.34,0,5.99-1.65,1.65-4.34,1.65-5.99,0l-93.39-93.39c-1.65-1.65-1.65-4.34,0-5.99s4.34-1.65,5.99,0l93.39,93.39ZM687.06,495.42c3.19,3.19,3.19,8.35,0,11.54l-18.93,18.93c-3.19,3.19-8.35,3.19-11.54,0l-87.84-87.84c-3.19-3.19-3.19-8.35,0-11.54l18.93-18.93c3.19-3.19,8.35-3.19,11.54,0l87.84,87.84ZM708.81,480.79c1.22,1.22,1.22,3.2,0,4.42l-7.56,7.56c-1.22,1.22-3.2,1.22-4.42,0l-94.97-94.97c-1.22-1.22-1.22-3.2,0-4.42l7.56-7.56c1.22-1.22,3.2-1.22,4.42,0l94.97,94.97ZM742.24,470.48c1.93,1.93,1.93,5.06,0,6.99l-8.67,8.67c-1.93,1.93-5.06,1.93-6.99,0l-105.24-105.24c-1.93-1.93-1.93-5.06,0-6.99l8.67-8.67c1.93-1.93,5.06-1.93,6.99,0l105.24,105.24ZM770.39,377.75c-11.23,11.23-29.43,11.23-40.66,0-11.23-11.23-11.23-29.43,0-40.66,11.23-11.23,29.43-11.23,40.66,0,11.23,11.23,11.23,29.43,0,40.66Z"/>
</svg>