<?xml version="1.0" encoding="UTF-8" standalone="no"?>
<svg
   viewBox="0 0 659.54834 444.67075"
   version="1.1"
   xmlns="http://www.w3.org/2000/svg"
   xmlns:svg="http://www.w3.org/2000/svg">
  <path
     d="m 187.57,308.85073 c -16.08,-16.08 -16.08,-42.16 0,-58.24 L 426.12,12.060731 c 2.41,-2.4099995 5.1,-4.4799995 7.96,-6.1999995 L 394.01,0.38073147 A 41.17,41.17 0 0 0 359.31,12.060731 L 120.76,250.61073 c -16.08,16.08 -16.08,42.16 0,58.24 l 123.76,123.76 c 16.08,16.08 42.16,16.08 58.24,0 l 4.28,-4.28 -119.48,-119.48 z m -108.7,0 c -16.08,-16.08 -16.08,-42.16 0,-58.24 L 317.42,12.060731 c 2.41,-2.4099995 5.1,-4.4799995 7.96,-6.1999995 L 285.31,0.38073147 A 41.17,41.17 0 0 0 250.61,12.060731 L 12.06,250.61073 c -16.08,16.08 -16.08,42.16 0,58.24 l 123.76,123.76 c 16.08,16.08 42.16,16.08 58.24,0 l 4.28,-4.28 -119.48,-119.48 z M 609.06,15.330731 500.22,0.44073147 A 41.16,41.16 0 0 0 465.53,12.120731 L 227.03,250.62073 c -16.08,16.08 -16.08,42.15 0,58.23 l 123.73,123.73 c 16.08,16.08 42.15,16.08 58.23,0 l 238.5,-238.5 a 41.19,41.19 0 0 0 11.68,-34.69 L 644.28,50.550731 a 41.18,41.18 0 0 0 -35.21,-35.21 z M 403.53,361.30073 c 1.93,1.93 1.93,5.06 0,6.99 l -8.67,8.67 c -1.93,1.93 -5.06,1.93 -6.99,0 l -105.24,-105.24 c -1.93,-1.93 -1.93,-5.06 0,-6.99 l 8.67,-8.67 c 1.93,-1.93 5.06,-1.93 6.99,0 z m 6.63,-29.75 c 1.22,1.22 1.22,3.2 0,4.42 l -7.56,7.56 c -1.22,1.22 -3.2,1.22 -4.42,0 l -94.97,-94.97 c -1.22,-1.22 -1.22,-3.2 0,-4.42 l 7.56,-7.56 c 1.22,-1.22 3.2,-1.22 4.42,0 z m 13.02,-14.09 c 1.52,1.52 1.52,3.98 0,5.49 l -1.41,1.41 c -1.52,1.52 -3.98,1.52 -5.49,0 l -93.89,-93.89 c -1.52,-1.52 -1.52,-3.98 0,-5.49 l 1.41,-1.41 c 1.52,-1.52 3.98,-1.52 5.49,0 z m 13.53,-13.53 c 1.52,1.52 1.52,3.98 0,5.49 l -1.41,1.41 c -1.52,1.52 -3.98,1.52 -5.49,0 l -93.89,-93.89 c -1.52,-1.52 -1.52,-3.98 0,-5.49 l 1.41,-1.41 c 1.52,-1.52 3.98,-1.52 5.49,0 z m 13.78,-13.78 c 1.52,1.52 1.52,3.98 0,5.49 l -1.41,1.41 c -1.52,1.52 -3.98,1.52 -5.49,0 l -93.89,-93.89 c -1.52,-1.52 -1.52,-3.98 0,-5.49 l 1.41,-1.41 c 1.52,-1.52 3.98,-1.52 5.49,0 z m 32.54,-8.35 c 1.93,1.93 1.93,5.06 0,6.99 l -8.67,8.67 c -1.93,1.93 -5.06,1.93 -6.99,0 l -105.24,-105.24 c -1.93,-1.93 -1.93,-5.06 0,-6.99 l 8.67,-8.67 c 1.93,-1.93 5.06,-1.93 6.99,0 z m -0.11,-24.59 c 1.65,1.65 1.65,4.34 0,5.99 -1.65,1.65 -4.34,1.65 -5.99,0 l -93.39,-93.39 c -1.65,-1.65 -1.65,-4.34 0,-5.99 1.65,-1.65 4.34,-1.65 5.99,0 z m 33.91,-39.45 c 3.19,3.19 3.19,8.35 0,11.54 l -18.93,18.93 c -3.19,3.19 -8.35,3.19 -11.54,0 l -87.84,-87.84 c -3.19,-3.19 -3.19,-8.35 0,-11.54 l 18.93,-18.93 c 3.19,-3.19 8.35,-3.19 11.54,0 z m 21.75,-14.63 c 1.22,1.22 1.22,3.2 0,4.42 l -7.56,7.56 c -1.22,1.22 -3.2,1.22 -4.42,0 l -94.97,-94.97 c -1.22,-1.22 -1.22,-3.2 0,-4.42 l 7.56,-7.56 c 1.22,-1.22 3.2,-1.22 4.42,0 z m 33.43,-10.31 c 1.93,1.93 1.93,5.06 0,6.99 l -8.67,8.67 c -1.93,1.93 -5.06,1.93 -6.99,0 l -105.24,-105.24 c -1.93,-1.93 -1.93,-5.059999 0,-6.989999 l 8.67,-8.67 c 1.93,-1.93 5.06,-1.93 6.99,0 z m 28.15,-92.73 c -11.23,11.23 -29.43,11.23 -40.66,0 -11.23,-11.229999 -11.23,-29.429999 0,-40.659999 11.23,-11.23 29.43,-11.23 40.66,0 11.23,11.23 11.23,29.43 0,40.659999 z" />
</svg>
